<svg viewBox="0 0 200 200" xmlns="http://www.w3.org/2000/svg">
  <path fill="#F2F4F8" d="M34.7,-53C48.2,-52.2,64.7,-49.5,71.3,-40.4C78,-31.2,74.8,-15.6,70.7,-2.4C66.6,10.8,61.4,21.7,56.1,33.1C50.7,44.6,45.2,56.6,35.8,62C26.4,67.4,13.2,66.2,-1.6,68.9C-16.3,71.6,-32.7,78.3,-42.1,72.9C-51.5,67.5,-53.9,50,-62.3,35.8C-70.7,21.7,-85,10.8,-87.4,-1.4C-89.8,-13.6,-80.2,-27.2,-70,-38.3C-59.9,-49.4,-49.2,-58.1,-37.5,-59.9C-25.7,-61.7,-12.9,-56.6,-1.1,-54.6C10.6,-52.6,21.1,-53.8,34.7,-53Z" transform="translate(100 100)" />
</svg>