<?xml version="1.0" standalone="no"?>
<svg viewBox="0 0 200 200" xmlns="http://www.w3.org/2000/svg">
  <path fill="#D0E2FF" d="M36.4,-62.4C44.4,-58.4,46.1,-43,54.5,-30.7C62.9,-18.4,78,-9.2,82.7,2.7C87.4,14.6,81.6,29.2,72.1,39.7C62.7,50.2,49.6,56.8,37,58.9C24.4,61,12.2,58.6,1.7,55.7C-8.8,52.8,-17.6,49.2,-31,47.6C-44.4,45.9,-62.4,46.2,-74.1,38.6C-85.9,30.9,-91.4,15.5,-89.2,1.3C-87,-12.9,-77,-25.8,-66,-34.7C-54.9,-43.5,-42.7,-48.2,-31.6,-50.3C-20.4,-52.4,-10.2,-51.9,2,-55.4C14.2,-58.9,28.4,-66.4,36.4,-62.4Z" transform="translate(100 100)" />
</svg>
